<?xml version="1.0" encoding="UTF-8"?>
<svg xmlns="http://www.w3.org/2000/svg" width="760" height="300" viewBox="0 0 760 300" role="img" aria-label="Compiler — VDOM · production · sourcemap off — SFC compilation with CSS — script, template and style changed">
  <title>Compiler — VDOM · production · sourcemap off — SFC compilation with CSS — script, template and style changed (lower is better)</title>
  <style><![CDATA[
    text { font-family: -apple-system, BlinkMacSystemFont, "Segoe UI", Helvetica, Arial, sans-serif; }
  ]]></style>
  <defs><pattern id="hatch-1" width="8" height="8" patternUnits="userSpaceOnUse" patternTransform="rotate(35)"><rect width="8" height="8" fill="#78716c"/><line x1="0" y1="0" x2="0" y2="8" stroke="#fff" stroke-width="3" opacity="0.35"/></pattern><pattern id="hatch-2" width="8" height="8" patternUnits="userSpaceOnUse" patternTransform="rotate(35)"><rect width="8" height="8" fill="#2563eb"/><line x1="0" y1="0" x2="0" y2="8" stroke="#fff" stroke-width="3" opacity="0.35"/></pattern><pattern id="hatch-3" width="8" height="8" patternUnits="userSpaceOnUse" patternTransform="rotate(35)"><rect width="8" height="8" fill="#78716c"/><line x1="0" y1="0" x2="0" y2="8" stroke="#fff" stroke-width="3" opacity="0.35"/></pattern><pattern id="hatch-4" width="8" height="8" patternUnits="userSpaceOnUse" patternTransform="rotate(35)"><rect width="8" height="8" fill="#2563eb"/><line x1="0" y1="0" x2="0" y2="8" stroke="#fff" stroke-width="3" opacity="0.35"/></pattern><pattern id="hatch-5" width="8" height="8" patternUnits="userSpaceOnUse" patternTransform="rotate(35)"><rect width="8" height="8" fill="#e11d48"/><line x1="0" y1="0" x2="0" y2="8" stroke="#fff" stroke-width="3" opacity="0.35"/></pattern></defs>
  <text fill="#1f2328" x="16" y="20" font-size="15" font-weight="600">Compiler — VDOM · production · sourcemap off — SFC compilation with CSS — scr…</text>
  <text fill="#59636e" x="16" y="36" font-size="11">lower is better</text>
  
  <line x1="248" y1="48" x2="248" y2="272" stroke="#d0d7de" stroke-opacity="0.55" />
  <text fill="#59636e" x="248" y="292" text-anchor="middle" font-size="11">0.0 ms</text>
  <line x1="348.5" y1="48" x2="348.5" y2="272" stroke="#d0d7de" stroke-opacity="0.55" />
  <text fill="#59636e" x="348.5" y="292" text-anchor="middle" font-size="11">5.3 ms</text>
  <line x1="449" y1="48" x2="449" y2="272" stroke="#d0d7de" stroke-opacity="0.55" />
  <text fill="#59636e" x="449" y="292" text-anchor="middle" font-size="11">10.6 ms</text>
  <line x1="549.5" y1="48" x2="549.5" y2="272" stroke="#d0d7de" stroke-opacity="0.55" />
  <text fill="#59636e" x="549.5" y="292" text-anchor="middle" font-size="11">15.9 ms</text>
  <line x1="650" y1="48" x2="650" y2="272" stroke="#d0d7de" stroke-opacity="0.55" />
  <text fill="#59636e" x="650" y="292" text-anchor="middle" font-size="11">21.2 ms</text>
  <text fill="#59636e" x="16" y="77" font-size="11">1</text>
      <text fill="#1f2328" x="36" y="77" font-size="13">Vue compiler-sfc 3.5 ref…</text>
      
      <rect x="248" y="61" width="402" height="22" rx="5" fill="#afb8c133"/>
      <rect x="248" y="61" width="402.0" height="22" rx="5" fill="#42b883"/>
      <text fill="#ffffff" x="256" y="77" font-size="12" font-weight="600">21.2 ms</text>
  <text fill="#59636e" x="16" y="113" font-size="11">2</text>
      <text fill="#1f2328" x="36" y="113" font-size="13" fill-opacity="0.62">fervid compileAsync (4-t…</text>
      <line x1="36" y1="108" x2="240" y2="108" stroke="#1f2328" stroke-opacity="0.45" />
      <rect x="248" y="97" width="402" height="22" rx="5" fill="#afb8c133"/>
      <rect x="248" y="97" width="26.1" height="22" rx="5" fill="url(#hatch-1)"/>
      <text fill="#1f2328" x="282.1186440677966" y="113" font-size="12" font-weight="600">1.4 ms · unranked</text>
  <text fill="#59636e" x="16" y="149" font-size="11">3</text>
      <text fill="#1f2328" x="36" y="149" font-size="13" fill-opacity="0.62">Vize compileSfcBatchWith…</text>
      <line x1="36" y1="144" x2="240" y2="144" stroke="#1f2328" stroke-opacity="0.45" />
      <rect x="248" y="133" width="402" height="22" rx="5" fill="#afb8c133"/>
      <rect x="248" y="133" width="29.1" height="22" rx="5" fill="url(#hatch-2)"/>
      <text fill="#1f2328" x="285.0901129943503" y="149" font-size="12" font-weight="600">1.5 ms · unranked</text>
  <text fill="#59636e" x="16" y="185" font-size="11">4</text>
      <text fill="#1f2328" x="36" y="185" font-size="13" fill-opacity="0.62">fervid compileSync (1T)</text>
      <line x1="36" y1="180" x2="240" y2="180" stroke="#1f2328" stroke-opacity="0.45" />
      <rect x="248" y="169" width="402" height="22" rx="5" fill="#afb8c133"/>
      <rect x="248" y="169" width="73.5" height="22" rx="5" fill="url(#hatch-3)"/>
      <text fill="#1f2328" x="329.52966101694915" y="185" font-size="12" font-weight="600">3.9 ms · unranked</text>
  <text fill="#59636e" x="16" y="221" font-size="11">5</text>
      <text fill="#1f2328" x="36" y="221" font-size="13" fill-opacity="0.62">Vize compileSfc loop (fu…</text>
      <line x1="36" y1="216" x2="240" y2="216" stroke="#1f2328" stroke-opacity="0.45" />
      <rect x="248" y="205" width="402" height="22" rx="5" fill="#afb8c133"/>
      <rect x="248" y="205" width="74.0" height="22" rx="5" fill="url(#hatch-4)"/>
      <text fill="#1f2328" x="329.9838983050847" y="221" font-size="12" font-weight="600">3.9 ms · unranked</text>
  <text fill="#59636e" x="16" y="257" font-size="11">6</text>
      <text fill="#1f2328" x="36" y="257" font-size="13" fill-opacity="0.62">Verter compileMany + pro…</text>
      <line x1="36" y1="252" x2="240" y2="252" stroke="#1f2328" stroke-opacity="0.45" />
      <rect x="248" y="241" width="402" height="22" rx="5" fill="#afb8c133"/>
      <rect x="248" y="241" width="100.9" height="22" rx="5" fill="url(#hatch-5)"/>
      <text fill="#ffffff" x="256" y="257" font-size="12" font-weight="600">5.3 ms · unranked</text>
</svg>
