<?xml version="1.0" encoding="UTF-8"?>
<svg xmlns="http://www.w3.org/2000/svg" width="760" height="236" viewBox="0 0 760 236" role="img" aria-label="IDE · Completion (8 contexts, content-gated) — Completion: prop name &lt;C :">
  <title>IDE · Completion (8 contexts, content-gated) — Completion: prop name &lt;C : (lower is better)</title>
  <style><![CDATA[
    text { font-family: -apple-system, BlinkMacSystemFont, "Segoe UI", Helvetica, Arial, sans-serif; }
  ]]></style>
  
  <text fill="#e6edf3" x="16" y="20" font-size="15" font-weight="600">IDE · Completion (8 contexts, content-gated) — Completion: prop name &lt;C :</text>
  <text fill="#9198a1" x="16" y="36" font-size="11">lower is better</text>
  <rect x="146" y="33" width="10" height="10" rx="2" fill="#e6edf3"/>
  <text fill="#9198a1" x="160" y="42" font-size="11">warm</text>
  <rect x="204" y="33" width="10" height="10" rx="2" fill="#e6edf3" fill-opacity="0.38"/>
  <text fill="#9198a1" x="218" y="42" font-size="11">cold</text>
  <line x1="248" y1="56" x2="248" y2="208" stroke="#3d444d" stroke-opacity="0.55" />
  <text fill="#9198a1" x="248" y="228" text-anchor="middle" font-size="11">0.0 ms</text>
  <line x1="348.5" y1="56" x2="348.5" y2="208" stroke="#3d444d" stroke-opacity="0.55" />
  <text fill="#9198a1" x="348.5" y="228" text-anchor="middle" font-size="11">48.8 ms</text>
  <line x1="449" y1="56" x2="449" y2="208" stroke="#3d444d" stroke-opacity="0.55" />
  <text fill="#9198a1" x="449" y="228" text-anchor="middle" font-size="11">97.6 ms</text>
  <line x1="549.5" y1="56" x2="549.5" y2="208" stroke="#3d444d" stroke-opacity="0.55" />
  <text fill="#9198a1" x="549.5" y="228" text-anchor="middle" font-size="11">146 ms</text>
  <line x1="650" y1="56" x2="650" y2="208" stroke="#3d444d" stroke-opacity="0.55" />
  <text fill="#9198a1" x="650" y="228" text-anchor="middle" font-size="11">195 ms</text>
  <text fill="#9198a1" x="16" y="85" font-size="11">1</text>
      <text fill="#e6edf3" x="36" y="85" font-size="13">Vize</text>
      
      <rect x="248" y="69" width="402" height="22" rx="5" fill="#6e768166"/>
      <rect x="248" y="69" width="4.0" height="22" rx="5" fill="#2563eb" fill-opacity="0.38"/>
      <rect x="248" y="69" width="4.0" height="22" rx="5" fill="#2563eb" fill-opacity="1"/>
      <line x1="252" y1="68" x2="252" y2="92" stroke="#0d1117" stroke-width="2" stroke-opacity="0.9"/>
      <text fill="#e6edf3" x="260" y="85" font-size="12" font-weight="600">0.3 ms warm / 0.4 ms cold</text>
  <text fill="#9198a1" x="16" y="121" font-size="11">2</text>
      <text fill="#e6edf3" x="36" y="121" font-size="13">Verter</text>
      
      <rect x="248" y="105" width="402" height="22" rx="5" fill="#6e768166"/>
      <rect x="248" y="105" width="4.0" height="22" rx="5" fill="#e11d48" fill-opacity="0.38"/>
      <rect x="248" y="105" width="4.0" height="22" rx="5" fill="#e11d48" fill-opacity="1"/>
      <line x1="252" y1="104" x2="252" y2="128" stroke="#0d1117" stroke-width="2" stroke-opacity="0.9"/>
      <text fill="#e6edf3" x="260" y="121" font-size="12" font-weight="600">1.1 ms warm / 1.5 ms cold</text>
  <text fill="#9198a1" x="16" y="157" font-size="11">3</text>
      <text fill="#e6edf3" x="36" y="157" font-size="13">Volar (N)</text>
      
      <rect x="248" y="141" width="402" height="22" rx="5" fill="#6e768166"/>
      <rect x="248" y="141" width="69.5" height="22" rx="5" fill="#42b883" fill-opacity="0.38"/>
      <rect x="248" y="141" width="15.0" height="22" rx="5" fill="#42b883" fill-opacity="1"/>
      <line x1="263.03495220545176" y1="140" x2="263.03495220545176" y2="164" stroke="#0d1117" stroke-width="2" stroke-opacity="0.9"/>
      <text fill="#e6edf3" x="325.5051238170138" y="157" font-size="12" font-weight="600">7.3 ms warm / 33.8 ms cold</text>
  <text fill="#9198a1" x="16" y="193" font-size="11">4</text>
      <text fill="#e6edf3" x="36" y="193" font-size="13">Volar (JS)</text>
      
      <rect x="248" y="177" width="402" height="22" rx="5" fill="#6e768166"/>
      <rect x="248" y="177" width="402.0" height="22" rx="5" fill="#42b883" fill-opacity="0.38"/>
      <rect x="248" y="177" width="330.4" height="22" rx="5" fill="#42b883" fill-opacity="1"/>
      <line x1="578.4023437284632" y1="176" x2="578.4023437284632" y2="200" stroke="#0d1117" stroke-width="2" stroke-opacity="0.9"/>
      <text fill="#ffffff" x="256" y="193" font-size="12" font-weight="600">160 ms warm / 195 ms cold</text>
</svg>
