<?xml version="1.0" encoding="UTF-8"?>
<svg xmlns="http://www.w3.org/2000/svg" width="760" height="228" viewBox="0 0 760 228" role="img" aria-label="IDE · Edit loop (type, wait, hover) — Edit fixes it -&gt; diagnostic clears">
  <title>IDE · Edit loop (type, wait, hover) — Edit fixes it -&gt; diagnostic clears (lower is better)</title>
  <style><![CDATA[
    text { font-family: -apple-system, BlinkMacSystemFont, "Segoe UI", Helvetica, Arial, sans-serif; }
  ]]></style>
  
  <text fill="#e6edf3" x="16" y="20" font-size="15" font-weight="600">IDE · Edit loop (type, wait, hover) — Edit fixes it -&gt; diagnostic clears</text>
  <text fill="#9198a1" x="16" y="36" font-size="11">lower is better</text>
  
  <line x1="248" y1="48" x2="248" y2="200" stroke="#3d444d" stroke-opacity="0.55" />
  <text fill="#9198a1" x="248" y="220" text-anchor="middle" font-size="11">0.0 ms</text>
  <line x1="348.5" y1="48" x2="348.5" y2="200" stroke="#3d444d" stroke-opacity="0.55" />
  <text fill="#9198a1" x="348.5" y="220" text-anchor="middle" font-size="11">165 ms</text>
  <line x1="449" y1="48" x2="449" y2="200" stroke="#3d444d" stroke-opacity="0.55" />
  <text fill="#9198a1" x="449" y="220" text-anchor="middle" font-size="11">329 ms</text>
  <line x1="549.5" y1="48" x2="549.5" y2="200" stroke="#3d444d" stroke-opacity="0.55" />
  <text fill="#9198a1" x="549.5" y="220" text-anchor="middle" font-size="11">494 ms</text>
  <line x1="650" y1="48" x2="650" y2="200" stroke="#3d444d" stroke-opacity="0.55" />
  <text fill="#9198a1" x="650" y="220" text-anchor="middle" font-size="11">659 ms</text>
  <text fill="#9198a1" x="16" y="77" font-size="11">1</text>
      <text fill="#e6edf3" x="36" y="77" font-size="13">Vize</text>
      
      <rect x="248" y="61" width="402" height="22" rx="5" fill="#6e768166"/>
      <rect x="248" y="61" width="12.4" height="22" rx="5" fill="#2563eb"/>
      <text fill="#e6edf3" x="268.36511146030347" y="77" font-size="12" font-weight="600">20.3 ms</text>
  <text fill="#9198a1" x="16" y="113" font-size="11">2</text>
      <text fill="#e6edf3" x="36" y="113" font-size="13">Volar (N)</text>
      
      <rect x="248" y="97" width="402" height="22" rx="5" fill="#6e768166"/>
      <rect x="248" y="97" width="233.6" height="22" rx="5" fill="#42b883"/>
      <text fill="#ffffff" x="256" y="113" font-size="12" font-weight="600">383 ms</text>
  <text fill="#9198a1" x="16" y="149" font-size="11">3</text>
      <text fill="#e6edf3" x="36" y="149" font-size="13">Volar (JS)</text>
      
      <rect x="248" y="133" width="402" height="22" rx="5" fill="#6e768166"/>
      <rect x="248" y="133" width="279.2" height="22" rx="5" fill="#42b883"/>
      <text fill="#ffffff" x="256" y="149" font-size="12" font-weight="600">457 ms</text>
  <text fill="#9198a1" x="16" y="185" font-size="11">4</text>
      <text fill="#e6edf3" x="36" y="185" font-size="13">Verter</text>
      
      <rect x="248" y="169" width="402" height="22" rx="5" fill="#6e768166"/>
      <rect x="248" y="169" width="402.0" height="22" rx="5" fill="#e11d48"/>
      <text fill="#ffffff" x="256" y="185" font-size="12" font-weight="600">659 ms</text>
</svg>
