<?xml version="1.0" encoding="UTF-8"?>
<svg xmlns="http://www.w3.org/2000/svg" width="760" height="236" viewBox="0 0 760 236" role="img" aria-label="IDE · completion — Completion: prop name &lt;C :">
  <title>IDE · completion — Completion: prop name &lt;C : (lower is better)</title>
  <style><![CDATA[
    text { font-family: -apple-system, BlinkMacSystemFont, "Segoe UI", Helvetica, Arial, sans-serif; }
  ]]></style>
  
  <text fill="#e6edf3" x="16" y="20" font-size="15" font-weight="600">IDE · completion — Completion: prop name &lt;C :</text>
  <text fill="#9198a1" x="16" y="36" font-size="11">lower is better</text>
  <rect x="146" y="33" width="10" height="10" rx="2" fill="#e6edf3"/>
  <text fill="#9198a1" x="160" y="42" font-size="11">warm</text>
  <rect x="204" y="33" width="10" height="10" rx="2" fill="#e6edf3" fill-opacity="0.38"/>
  <text fill="#9198a1" x="218" y="42" font-size="11">cold</text>
  <line x1="248" y1="56" x2="248" y2="208" stroke="#3d444d" stroke-opacity="0.55" />
  <text fill="#9198a1" x="248" y="228" text-anchor="middle" font-size="11">0.0 ms</text>
  <line x1="348.5" y1="56" x2="348.5" y2="208" stroke="#3d444d" stroke-opacity="0.55" />
  <text fill="#9198a1" x="348.5" y="228" text-anchor="middle" font-size="11">20.6 ms</text>
  <line x1="449" y1="56" x2="449" y2="208" stroke="#3d444d" stroke-opacity="0.55" />
  <text fill="#9198a1" x="449" y="228" text-anchor="middle" font-size="11">41.2 ms</text>
  <line x1="549.5" y1="56" x2="549.5" y2="208" stroke="#3d444d" stroke-opacity="0.55" />
  <text fill="#9198a1" x="549.5" y="228" text-anchor="middle" font-size="11">61.8 ms</text>
  <line x1="650" y1="56" x2="650" y2="208" stroke="#3d444d" stroke-opacity="0.55" />
  <text fill="#9198a1" x="650" y="228" text-anchor="middle" font-size="11">82.4 ms</text>
  <text fill="#9198a1" x="16" y="85" font-size="11">1</text>
      <text fill="#e6edf3" x="36" y="85" font-size="13">Vize</text>
      
      <rect x="248" y="69" width="402" height="22" rx="5" fill="#6e768166"/>
      <rect x="248" y="69" width="4.0" height="22" rx="5" fill="#2563eb" fill-opacity="0.38"/>
      <rect x="248" y="69" width="4.0" height="22" rx="5" fill="#2563eb" fill-opacity="1"/>
      <line x1="252" y1="68" x2="252" y2="92" stroke="#0d1117" stroke-width="2" stroke-opacity="0.9"/>
      <text fill="#e6edf3" x="260" y="85" font-size="12" font-weight="600">0.6 ms warm / 0.7 ms cold</text>
  <text fill="#9198a1" x="16" y="121" font-size="11">2</text>
      <text fill="#e6edf3" x="36" y="121" font-size="13">Verter</text>
      
      <rect x="248" y="105" width="402" height="22" rx="5" fill="#6e768166"/>
      <rect x="248" y="105" width="10.8" height="22" rx="5" fill="#e11d48" fill-opacity="0.38"/>
      <rect x="248" y="105" width="6.2" height="22" rx="5" fill="#e11d48" fill-opacity="1"/>
      <line x1="254.20271965270385" y1="104" x2="254.20271965270385" y2="128" stroke="#0d1117" stroke-width="2" stroke-opacity="0.9"/>
      <text fill="#e6edf3" x="266.76712313804467" y="121" font-size="12" font-weight="600">1.3 ms warm / 2.2 ms cold</text>
  <text fill="#9198a1" x="16" y="157" font-size="11">3</text>
      <text fill="#e6edf3" x="36" y="157" font-size="13">Volar (N)</text>
      
      <rect x="248" y="141" width="402" height="22" rx="5" fill="#6e768166"/>
      <rect x="248" y="141" width="224.5" height="22" rx="5" fill="#42b883" fill-opacity="0.38"/>
      <rect x="248" y="141" width="25.8" height="22" rx="5" fill="#42b883" fill-opacity="1"/>
      <line x1="273.78640367830997" y1="140" x2="273.78640367830997" y2="164" stroke="#0d1117" stroke-width="2" stroke-opacity="0.9"/>
      <text fill="#ffffff" x="256" y="157" font-size="12" font-weight="600">5.3 ms warm / 46.0 ms cold</text>
  <text fill="#9198a1" x="16" y="193" font-size="11">4</text>
      <text fill="#e6edf3" x="36" y="193" font-size="13">Volar (JS)</text>
      
      <rect x="248" y="177" width="402" height="22" rx="5" fill="#6e768166"/>
      <rect x="248" y="177" width="402.0" height="22" rx="5" fill="#42b883" fill-opacity="0.38"/>
      <rect x="248" y="177" width="30.8" height="22" rx="5" fill="#42b883" fill-opacity="1"/>
      <line x1="278.7598983209868" y1="176" x2="278.7598983209868" y2="200" stroke="#0d1117" stroke-width="2" stroke-opacity="0.9"/>
      <text fill="#ffffff" x="256" y="193" font-size="12" font-weight="600">6.3 ms warm / 82.4 ms cold</text>
</svg>
