<?xml version="1.0" encoding="UTF-8"?>
<svg xmlns="http://www.w3.org/2000/svg" width="760" height="228" viewBox="0 0 760 228" role="img" aria-label="Project build (own config) — hoppscotch:common">
  <title>Project build (own config) — hoppscotch:common (lower is better)</title>
  <style><![CDATA[
    text { font-family: -apple-system, BlinkMacSystemFont, "Segoe UI", Helvetica, Arial, sans-serif; }
  ]]></style>
  
  <text fill="#e6edf3" x="16" y="20" font-size="15" font-weight="600">Project build (own config) — hoppscotch:common</text>
  <text fill="#9198a1" x="16" y="36" font-size="11">lower is better</text>
  
  <line x1="248" y1="48" x2="248" y2="200" stroke="#3d444d" stroke-opacity="0.55" />
  <text fill="#9198a1" x="248" y="220" text-anchor="middle" font-size="11">0.0 ms</text>
  <line x1="348.5" y1="48" x2="348.5" y2="200" stroke="#3d444d" stroke-opacity="0.55" />
  <text fill="#9198a1" x="348.5" y="220" text-anchor="middle" font-size="11">443 ms</text>
  <line x1="449" y1="48" x2="449" y2="200" stroke="#3d444d" stroke-opacity="0.55" />
  <text fill="#9198a1" x="449" y="220" text-anchor="middle" font-size="11">886 ms</text>
  <line x1="549.5" y1="48" x2="549.5" y2="200" stroke="#3d444d" stroke-opacity="0.55" />
  <text fill="#9198a1" x="549.5" y="220" text-anchor="middle" font-size="11">1.33 s</text>
  <line x1="650" y1="48" x2="650" y2="200" stroke="#3d444d" stroke-opacity="0.55" />
  <text fill="#9198a1" x="650" y="220" text-anchor="middle" font-size="11">1.77 s</text>
  <text fill="#9198a1" x="16" y="77" font-size="11">1</text>
      <text fill="#e6edf3" x="36" y="77" font-size="13">hoppscotch-agent — @vize…</text>
      
      <rect x="248" y="61" width="402" height="22" rx="5" fill="#6e768166"/>
      <rect x="248" y="61" width="359.2" height="22" rx="5" fill="#2563eb"/>
      <text fill="#ffffff" x="256" y="77" font-size="12" font-weight="600">1.58 s</text>
  <text fill="#9198a1" x="16" y="113" font-size="11">2</text>
      <text fill="#e6edf3" x="36" y="113" font-size="13">hoppscotch-agent — unplu…</text>
      
      <rect x="248" y="97" width="402" height="22" rx="5" fill="#6e768166"/>
      <rect x="248" y="97" width="382.0" height="22" rx="5" fill="#42b883"/>
      <text fill="#ffffff" x="256" y="113" font-size="12" font-weight="600">1.68 s</text>
  <text fill="#9198a1" x="16" y="149" font-size="11">3</text>
      <text fill="#e6edf3" x="36" y="149" font-size="13">hoppscotch-agent — proje…</text>
      
      <rect x="248" y="133" width="402" height="22" rx="5" fill="#6e768166"/>
      <rect x="248" y="133" width="391.3" height="22" rx="5" fill="#64748b"/>
      <text fill="#ffffff" x="256" y="149" font-size="12" font-weight="600">1.72 s</text>
  <text fill="#9198a1" x="16" y="185" font-size="11">4</text>
      <text fill="#e6edf3" x="36" y="185" font-size="13">hoppscotch-agent — @vert…</text>
      
      <rect x="248" y="169" width="402" height="22" rx="5" fill="#6e768166"/>
      <rect x="248" y="169" width="402.0" height="22" rx="5" fill="#e11d48"/>
      <text fill="#ffffff" x="256" y="185" font-size="12" font-weight="600">1.77 s</text>
</svg>
