<?xml version="1.0" encoding="UTF-8"?>
<svg xmlns="http://www.w3.org/2000/svg" width="760" height="360" viewBox="0 0 760 360" role="img" aria-label="VDOM · production · sourcemap off">
  <title>VDOM · production · sourcemap off (lower is better)</title>
  <style><![CDATA[
    text { font-family: ui-sans-serif, system-ui, -apple-system, "Segoe UI", sans-serif; }
    .label { fill: #111827; }
    .struck { text-decoration: line-through; opacity: 0.62; }
    .muted { fill: #6b7280; }
    .onbar { fill: #ffffff; }
    .track { fill: #111827; fill-opacity: 0.06; }
    .grid { stroke: #111827; stroke-opacity: 0.08; }
    @media (prefers-color-scheme: dark) {
      .label { fill: #f9fafb; }
      .muted { fill: #9ca3af; }
      .track { fill: #f9fafb; fill-opacity: 0.08; }
      .grid { stroke: #f9fafb; stroke-opacity: 0.12; }
    }
  ]]></style>
  <defs><pattern id="hatch-6" width="8" height="8" patternUnits="userSpaceOnUse" patternTransform="rotate(35)"><rect width="8" height="8" fill="#78716c"/><line x1="0" y1="0" x2="0" y2="8" stroke="#fff" stroke-width="3" opacity="0.35"/></pattern><pattern id="hatch-7" width="8" height="8" patternUnits="userSpaceOnUse" patternTransform="rotate(35)"><rect width="8" height="8" fill="#78716c"/><line x1="0" y1="0" x2="0" y2="8" stroke="#fff" stroke-width="3" opacity="0.35"/></pattern></defs>
  <text class="label" x="16" y="22" font-size="15" font-weight="600">VDOM · production · sourcemap off</text>
  <text class="muted" x="744" y="22" text-anchor="end" font-size="11">lower is better</text>
  
  <line class="grid" x1="248" y1="36" x2="248" y2="332" />
  <text class="muted" x="248" y="352" text-anchor="middle" font-size="11">0.0 ms</text>
  <line class="grid" x1="348.5" y1="36" x2="348.5" y2="332" />
  <text class="muted" x="348.5" y="352" text-anchor="middle" font-size="11">45.5 ms</text>
  <line class="grid" x1="449" y1="36" x2="449" y2="332" />
  <text class="muted" x="449" y="352" text-anchor="middle" font-size="11">91.1 ms</text>
  <line class="grid" x1="549.5" y1="36" x2="549.5" y2="332" />
  <text class="muted" x="549.5" y="352" text-anchor="middle" font-size="11">137 ms</text>
  <line class="grid" x1="650" y1="36" x2="650" y2="332" />
  <text class="muted" x="650" y="352" text-anchor="middle" font-size="11">182 ms</text>
  <text class="muted" x="16" y="60" font-size="11">1</text>
      <text class="label" x="236" y="60" text-anchor="end" font-size="13">Vize native batch (max threads)</text>
      <rect class="track" x="248" y="49" width="402" height="22" rx="5"/>
      <rect x="248" y="49" width="50.3" height="22" rx="5" fill="#2563eb"/>
      <text class="label" x="306.30515916575195" y="60" font-size="12" font-weight="600">22.8 ms</text>
  <text class="muted" x="16" y="96" font-size="11">2</text>
      <text class="label" x="236" y="96" text-anchor="end" font-size="13">Verter compileMany (session cache)</text>
      <rect class="track" x="248" y="85" width="402" height="22" rx="5"/>
      <rect x="248" y="85" width="54.3" height="22" rx="5" fill="#e11d48"/>
      <text class="label" x="310.27661909989024" y="96" font-size="12" font-weight="600">24.6 ms</text>
  <text class="muted" x="16" y="132" font-size="11">3</text>
      <text class="label" x="236" y="132" text-anchor="end" font-size="13">Vize native loop (1T)</text>
      <rect class="track" x="248" y="121" width="402" height="22" rx="5"/>
      <rect x="248" y="121" width="123.3" height="22" rx="5" fill="#2563eb"/>
      <text class="onbar" x="363.3358946212953" y="132" text-anchor="end" font-size="12" font-weight="600">55.9 ms</text>
  <text class="muted" x="16" y="168" font-size="11">4</text>
      <text class="label" x="236" y="168" text-anchor="end" font-size="13">Verter compileMany (stateless)</text>
      <rect class="track" x="248" y="157" width="402" height="22" rx="5"/>
      <rect x="248" y="157" width="274.3" height="22" rx="5" fill="#e11d48"/>
      <text class="onbar" x="514.251372118551" y="168" text-anchor="end" font-size="12" font-weight="600">124 ms</text>
  <text class="muted" x="16" y="204" font-size="11">5</text>
      <text class="label" x="236" y="204" text-anchor="end" font-size="13">@vue/compiler-sfc 3.5 (1T)</text>
      <rect class="track" x="248" y="193" width="402" height="22" rx="5"/>
      <rect x="248" y="193" width="392.5" height="22" rx="5" fill="#42b883"/>
      <text class="onbar" x="632.5126234906696" y="204" text-anchor="end" font-size="12" font-weight="600">178 ms</text>
  <text class="muted" x="16" y="240" font-size="11">6</text>
      <text class="label" x="236" y="240" text-anchor="end" font-size="13">@vue/compiler-sfc 3.6 (1T)</text>
      <rect class="track" x="248" y="229" width="402" height="22" rx="5"/>
      <rect x="248" y="229" width="402.0" height="22" rx="5" fill="#42b883"/>
      <text class="onbar" x="642" y="240" text-anchor="end" font-size="12" font-weight="600">182 ms</text>
  <text class="muted" x="16" y="276" font-size="11">7</text>
      <text class="label struck" x="236" y="276" text-anchor="end" font-size="13">fervid compileAsync (4-thread libuv…</text>
      <rect class="track" x="248" y="265" width="402" height="22" rx="5"/>
      <rect x="248" y="265" width="57.8" height="22" rx="5" fill="url(#hatch-6)"/>
      <text class="label" x="313.80680570801314" y="276" font-size="12" font-weight="600">26.2 ms · unranked</text>
  <text class="muted" x="16" y="312" font-size="11">8</text>
      <text class="label struck" x="236" y="312" text-anchor="end" font-size="13">fervid compileSync (1T)</text>
      <rect class="track" x="248" y="301" width="402" height="22" rx="5"/>
      <rect x="248" y="301" width="126.6" height="22" rx="5" fill="url(#hatch-7)"/>
      <text class="onbar" x="366.64544456641056" y="312" text-anchor="end" font-size="12" font-weight="600">57.4 ms · unranked</text>
</svg>
