<?xml version="1.0" encoding="UTF-8"?>
<svg xmlns="http://www.w3.org/2000/svg" width="760" height="408" viewBox="0 0 760 408" role="img" aria-label="SFC compilation with CSS — styles included">
  <title>SFC compilation with CSS — styles included (lower is better)</title>
  <style><![CDATA[
    text { font-family: -apple-system, BlinkMacSystemFont, "Segoe UI", Helvetica, Arial, sans-serif; }
    .label { fill: #111827; }
    .struck { fill-opacity: 0.62; }
    .muted { fill: #6b7280; }
    .onbar { fill: #ffffff; }
    .track { fill: #111827; fill-opacity: 0.06; }
    .grid { stroke: #111827; stroke-opacity: 0.08; }
    .strike { stroke: #111827; stroke-opacity: 0.45; }
    .series-boundary { stroke: #ffffff; stroke-width: 2; stroke-opacity: 0.9; }
    @media (prefers-color-scheme: dark) {
      .label { fill: #f9fafb; }
      .muted { fill: #9ca3af; }
      .track { fill: #f9fafb; fill-opacity: 0.08; }
      .grid { stroke: #f9fafb; stroke-opacity: 0.12; }
      .strike { stroke: #f9fafb; }
    }
  ]]></style>
  <defs><pattern id="hatch-1" width="8" height="8" patternUnits="userSpaceOnUse" patternTransform="rotate(35)"><rect width="8" height="8" fill="#78716c"/><line x1="0" y1="0" x2="0" y2="8" stroke="#fff" stroke-width="3" opacity="0.35"/></pattern><pattern id="hatch-2" width="8" height="8" patternUnits="userSpaceOnUse" patternTransform="rotate(35)"><rect width="8" height="8" fill="#2563eb"/><line x1="0" y1="0" x2="0" y2="8" stroke="#fff" stroke-width="3" opacity="0.35"/></pattern><pattern id="hatch-3" width="8" height="8" patternUnits="userSpaceOnUse" patternTransform="rotate(35)"><rect width="8" height="8" fill="#2563eb"/><line x1="0" y1="0" x2="0" y2="8" stroke="#fff" stroke-width="3" opacity="0.35"/></pattern><pattern id="hatch-4" width="8" height="8" patternUnits="userSpaceOnUse" patternTransform="rotate(35)"><rect width="8" height="8" fill="#2563eb"/><line x1="0" y1="0" x2="0" y2="8" stroke="#fff" stroke-width="3" opacity="0.35"/></pattern><pattern id="hatch-5" width="8" height="8" patternUnits="userSpaceOnUse" patternTransform="rotate(35)"><rect width="8" height="8" fill="#2563eb"/><line x1="0" y1="0" x2="0" y2="8" stroke="#fff" stroke-width="3" opacity="0.35"/></pattern><pattern id="hatch-6" width="8" height="8" patternUnits="userSpaceOnUse" patternTransform="rotate(35)"><rect width="8" height="8" fill="#e11d48"/><line x1="0" y1="0" x2="0" y2="8" stroke="#fff" stroke-width="3" opacity="0.35"/></pattern><pattern id="hatch-7" width="8" height="8" patternUnits="userSpaceOnUse" patternTransform="rotate(35)"><rect width="8" height="8" fill="#e11d48"/><line x1="0" y1="0" x2="0" y2="8" stroke="#fff" stroke-width="3" opacity="0.35"/></pattern><pattern id="hatch-8" width="8" height="8" patternUnits="userSpaceOnUse" patternTransform="rotate(35)"><rect width="8" height="8" fill="#42b883"/><line x1="0" y1="0" x2="0" y2="8" stroke="#fff" stroke-width="3" opacity="0.35"/></pattern></defs>
  <text class="label" fill="#111827" x="16" y="20" font-size="15" font-weight="600">SFC compilation with CSS — styles included</text>
  <text class="muted" fill="#6b7280" x="16" y="36" font-size="11">lower is better</text>
  
  <line class="grid" x1="248" y1="48" x2="248" y2="380" />
  <text class="muted" fill="#6b7280" x="248" y="400" text-anchor="middle" font-size="11">0.0 MB</text>
  <line class="grid" x1="348.5" y1="48" x2="348.5" y2="380" />
  <text class="muted" fill="#6b7280" x="348.5" y="400" text-anchor="middle" font-size="11">28.7 MB</text>
  <line class="grid" x1="449" y1="48" x2="449" y2="380" />
  <text class="muted" fill="#6b7280" x="449" y="400" text-anchor="middle" font-size="11">57.3 MB</text>
  <line class="grid" x1="549.5" y1="48" x2="549.5" y2="380" />
  <text class="muted" fill="#6b7280" x="549.5" y="400" text-anchor="middle" font-size="11">86.0 MB</text>
  <line class="grid" x1="650" y1="48" x2="650" y2="380" />
  <text class="muted" fill="#6b7280" x="650" y="400" text-anchor="middle" font-size="11">114.7 MB</text>
  <text class="muted" fill="#6b7280" x="16" y="77" font-size="11">1</text>
      <text class="label" fill="#111827" x="36" y="77" font-size="13">Vue compiler-sfc 3.5 ref…</text>
      
      <rect class="track" x="248" y="61" width="402" height="22" rx="5"/>
      <rect x="248" y="61" width="363.8" height="22" rx="5" fill="#42b883"/>
      <text class="onbar" fill="#ffffff" x="256" y="77" font-size="12" font-weight="600">103.8 MB</text>
  <text class="muted" fill="#6b7280" x="16" y="113" font-size="11">2</text>
      <text class="label struck" fill="#111827" x="36" y="113" font-size="13" fill-opacity="0.62">fervid compileSync (1T) …</text>
      <line class="strike" x1="36" y1="108" x2="240" y2="108" />
      <rect class="track" x="248" y="97" width="402" height="22" rx="5"/>
      <rect x="248" y="97" width="11.9" height="22" rx="5" fill="url(#hatch-1)"/>
      <text class="label" fill="#111827" x="267.91734240125555" y="113" font-size="12" font-weight="600">3.4 MB · unranked</text>
  <text class="muted" fill="#6b7280" x="16" y="149" font-size="11">3</text>
      <text class="label struck" fill="#111827" x="36" y="149" font-size="13" fill-opacity="0.62">Vize compileSfc loop (re…</text>
      <line class="strike" x1="36" y1="144" x2="240" y2="144" />
      <rect class="track" x="248" y="133" width="402" height="22" rx="5"/>
      <rect x="248" y="133" width="17.7" height="22" rx="5" fill="url(#hatch-2)"/>
      <text class="label" fill="#111827" x="273.7358095736333" y="149" font-size="12" font-weight="600">5.1 MB · unranked</text>
  <text class="muted" fill="#6b7280" x="16" y="185" font-size="11">4</text>
      <text class="label struck" fill="#111827" x="36" y="185" font-size="13" fill-opacity="0.62">Vize compileSfc loop (re…</text>
      <line class="strike" x1="36" y1="180" x2="240" y2="180" />
      <rect class="track" x="248" y="169" width="402" height="22" rx="5"/>
      <rect x="248" y="169" width="26.7" height="22" rx="5" fill="url(#hatch-3)"/>
      <text class="label" fill="#111827" x="282.74391838869997" y="185" font-size="12" font-weight="600">7.6 MB · unranked</text>
  <text class="muted" fill="#6b7280" x="16" y="221" font-size="11">5</text>
      <text class="label struck" fill="#111827" x="36" y="221" font-size="13" fill-opacity="0.62">Vize compileSfcBatchWith…</text>
      <line class="strike" x1="36" y1="216" x2="240" y2="216" />
      <rect class="track" x="248" y="205" width="402" height="22" rx="5"/>
      <rect x="248" y="205" width="71.5" height="22" rx="5" fill="url(#hatch-4)"/>
      <text class="label" fill="#111827" x="327.53910541459584" y="221" font-size="12" font-weight="600">20.4 MB · unranked</text>
  <text class="muted" fill="#6b7280" x="16" y="257" font-size="11">6</text>
      <text class="label struck" fill="#111827" x="36" y="257" font-size="13" fill-opacity="0.62">Vize compileSfcBatchWith…</text>
      <line class="strike" x1="36" y1="252" x2="240" y2="252" />
      <rect class="track" x="248" y="241" width="402" height="22" rx="5"/>
      <rect x="248" y="241" width="75.7" height="22" rx="5" fill="url(#hatch-5)"/>
      <text class="label" fill="#111827" x="331.6751242479728" y="257" font-size="12" font-weight="600">21.6 MB · unranked</text>
  <text class="muted" fill="#6b7280" x="16" y="293" font-size="11">7</text>
      <text class="label struck" fill="#111827" x="36" y="293" font-size="13" fill-opacity="0.62">Verter compileMany + pro…</text>
      <line class="strike" x1="36" y1="288" x2="240" y2="288" />
      <rect class="track" x="248" y="277" width="402" height="22" rx="5"/>
      <rect x="248" y="277" width="240.4" height="22" rx="5" fill="url(#hatch-6)"/>
      <text class="onbar" fill="#ffffff" x="256" y="293" font-size="12" font-weight="600">68.6 MB · unranked</text>
  <text class="muted" fill="#6b7280" x="16" y="329" font-size="11">8</text>
      <text class="label struck" fill="#111827" x="36" y="329" font-size="13" fill-opacity="0.62">Verter compileMany + pro…</text>
      <line class="strike" x1="36" y1="324" x2="240" y2="324" />
      <rect class="track" x="248" y="313" width="402" height="22" rx="5"/>
      <rect x="248" y="313" width="240.7" height="22" rx="5" fill="url(#hatch-7)"/>
      <text class="onbar" fill="#ffffff" x="256" y="329" font-size="12" font-weight="600">68.7 MB · unranked</text>
  <text class="muted" fill="#6b7280" x="16" y="365" font-size="11">9</text>
      <text class="label struck" fill="#111827" x="36" y="365" font-size="13" fill-opacity="0.62">Vue compiler-sfc 3.6 ref…</text>
      <line class="strike" x1="36" y1="360" x2="240" y2="360" />
      <rect class="track" x="248" y="349" width="402" height="22" rx="5"/>
      <rect x="248" y="349" width="402.0" height="22" rx="5" fill="url(#hatch-8)"/>
      <text class="onbar" fill="#ffffff" x="256" y="365" font-size="12" font-weight="600">114.7 MB · unranked</text>
</svg>
