<?xml version="1.0" encoding="UTF-8"?>
<svg xmlns="http://www.w3.org/2000/svg" width="760" height="252" viewBox="0 0 760 252" role="img" aria-label="lint">
  <title>lint (lower is better)</title>
  <style><![CDATA[
    text { font-family: ui-sans-serif, system-ui, -apple-system, "Segoe UI", sans-serif; }
    .label { fill: #111827; }
    .struck { text-decoration: line-through; opacity: 0.62; }
    .muted { fill: #6b7280; }
    .onbar { fill: #ffffff; }
    .track { fill: #111827; fill-opacity: 0.06; }
    .grid { stroke: #111827; stroke-opacity: 0.08; }
    @media (prefers-color-scheme: dark) {
      .label { fill: #f9fafb; }
      .muted { fill: #9ca3af; }
      .track { fill: #f9fafb; fill-opacity: 0.08; }
      .grid { stroke: #f9fafb; stroke-opacity: 0.12; }
    }
  ]]></style>
  
  <text class="label" x="16" y="22" font-size="15" font-weight="600">lint</text>
  <text class="muted" x="744" y="22" text-anchor="end" font-size="11">lower is better</text>
  
  <line class="grid" x1="248" y1="36" x2="248" y2="224" />
  <text class="muted" x="248" y="244" text-anchor="middle" font-size="11">0.0 MB</text>
  <line class="grid" x1="348.5" y1="36" x2="348.5" y2="224" />
  <text class="muted" x="348.5" y="244" text-anchor="middle" font-size="11">53.4 MB</text>
  <line class="grid" x1="449" y1="36" x2="449" y2="224" />
  <text class="muted" x="449" y="244" text-anchor="middle" font-size="11">106.9 MB</text>
  <line class="grid" x1="549.5" y1="36" x2="549.5" y2="224" />
  <text class="muted" x="549.5" y="244" text-anchor="middle" font-size="11">160.3 MB</text>
  <line class="grid" x1="650" y1="36" x2="650" y2="224" />
  <text class="muted" x="650" y="244" text-anchor="middle" font-size="11">213.7 MB</text>
  <text class="muted" x="16" y="60" font-size="11">1</text>
      <text class="label" x="236" y="60" text-anchor="end" font-size="13">Verter host lint</text>
      <rect class="track" x="248" y="49" width="402" height="22" rx="5"/>
      <rect x="248" y="49" width="59.4" height="22" rx="5" fill="#e11d48"/>
      <text class="label" x="315.37931034482756" y="60" font-size="12" font-weight="600">31.6 MB</text>
  <text class="muted" x="16" y="96" font-size="11">2</text>
      <text class="label" x="236" y="96" text-anchor="end" font-size="13">Vize lint</text>
      <rect class="track" x="248" y="85" width="402" height="22" rx="5"/>
      <rect x="248" y="85" width="128.1" height="22" rx="5" fill="#2563eb"/>
      <text class="onbar" x="368.0689655172414" y="96" text-anchor="end" font-size="12" font-weight="600">68.1 MB</text>
  <text class="muted" x="16" y="132" font-size="11">3</text>
      <text class="label" x="236" y="132" text-anchor="end" font-size="13">Oxlint (Node host + NAPI addon)</text>
      <rect class="track" x="248" y="121" width="402" height="22" rx="5"/>
      <rect x="248" y="121" width="188.9" height="22" rx="5" fill="#ca8a04"/>
      <text class="onbar" x="428.858934169279" y="132" text-anchor="end" font-size="12" font-weight="600">100.4 MB</text>
  <text class="muted" x="16" y="168" font-size="11">4</text>
      <text class="label" x="236" y="168" text-anchor="end" font-size="13">Biome lint</text>
      <rect class="track" x="248" y="157" width="402" height="22" rx="5"/>
      <rect x="248" y="157" width="193.4" height="22" rx="5" fill="#0ea5e9"/>
      <text class="onbar" x="433.37304075235113" y="168" text-anchor="end" font-size="12" font-weight="600">102.8 MB</text>
  <text class="muted" x="16" y="204" font-size="11">5</text>
      <text class="label" x="236" y="204" text-anchor="end" font-size="13">eslint-plugin-vue (1T)</text>
      <rect class="track" x="248" y="193" width="402" height="22" rx="5"/>
      <rect x="248" y="193" width="402.0" height="22" rx="5" fill="#4b32c3"/>
      <text class="onbar" x="642" y="204" text-anchor="end" font-size="12" font-weight="600">213.7 MB</text>
</svg>
