<?xml version="1.0" encoding="UTF-8"?>
<svg xmlns="http://www.w3.org/2000/svg" width="760" height="360" viewBox="0 0 760 360" role="img" aria-label="VDOM · production · sourcemap off">
  <title>VDOM · production · sourcemap off (lower is better)</title>
  <style><![CDATA[
    text { font-family: ui-sans-serif, system-ui, -apple-system, "Segoe UI", sans-serif; }
    .label { fill: #111827; }
    .struck { text-decoration: line-through; opacity: 0.62; }
    .muted { fill: #6b7280; }
    .onbar { fill: #ffffff; }
    .track { fill: #111827; fill-opacity: 0.06; }
    .grid { stroke: #111827; stroke-opacity: 0.08; }
    @media (prefers-color-scheme: dark) {
      .label { fill: #f9fafb; }
      .muted { fill: #9ca3af; }
      .track { fill: #f9fafb; fill-opacity: 0.08; }
      .grid { stroke: #f9fafb; stroke-opacity: 0.12; }
    }
  ]]></style>
  <defs><pattern id="hatch-4" width="8" height="8" patternUnits="userSpaceOnUse" patternTransform="rotate(35)"><rect width="8" height="8" fill="#e11d48"/><line x1="0" y1="0" x2="0" y2="8" stroke="#fff" stroke-width="3" opacity="0.35"/></pattern><pattern id="hatch-5" width="8" height="8" patternUnits="userSpaceOnUse" patternTransform="rotate(35)"><rect width="8" height="8" fill="#78716c"/><line x1="0" y1="0" x2="0" y2="8" stroke="#fff" stroke-width="3" opacity="0.35"/></pattern><pattern id="hatch-6" width="8" height="8" patternUnits="userSpaceOnUse" patternTransform="rotate(35)"><rect width="8" height="8" fill="#78716c"/><line x1="0" y1="0" x2="0" y2="8" stroke="#fff" stroke-width="3" opacity="0.35"/></pattern><pattern id="hatch-7" width="8" height="8" patternUnits="userSpaceOnUse" patternTransform="rotate(35)"><rect width="8" height="8" fill="#e11d48"/><line x1="0" y1="0" x2="0" y2="8" stroke="#fff" stroke-width="3" opacity="0.35"/></pattern></defs>
  <text class="label" x="16" y="22" font-size="15" font-weight="600">VDOM · production · sourcemap off</text>
  <text class="muted" x="744" y="22" text-anchor="end" font-size="11">lower is better</text>
  
  <line class="grid" x1="248" y1="36" x2="248" y2="332" />
  <text class="muted" x="248" y="352" text-anchor="middle" font-size="11">0.0 ms</text>
  <line class="grid" x1="348.5" y1="36" x2="348.5" y2="332" />
  <text class="muted" x="348.5" y="352" text-anchor="middle" font-size="11">68.7 ms</text>
  <line class="grid" x1="449" y1="36" x2="449" y2="332" />
  <text class="muted" x="449" y="352" text-anchor="middle" font-size="11">137 ms</text>
  <line class="grid" x1="549.5" y1="36" x2="549.5" y2="332" />
  <text class="muted" x="549.5" y="352" text-anchor="middle" font-size="11">206 ms</text>
  <line class="grid" x1="650" y1="36" x2="650" y2="332" />
  <text class="muted" x="650" y="352" text-anchor="middle" font-size="11">275 ms</text>
  <text class="muted" x="16" y="60" font-size="11">1</text>
      <text class="label" x="236" y="60" text-anchor="end" font-size="13">Vize native batch (max threads)</text>
      <rect class="track" x="248" y="49" width="402" height="22" rx="5"/>
      <rect x="248" y="49" width="53.8" height="22" rx="5" fill="#2563eb"/>
      <text class="label" x="309.8340611353712" y="60" font-size="12" font-weight="600">36.8 ms</text>
  <text class="muted" x="16" y="96" font-size="11">2</text>
      <text class="label" x="236" y="96" text-anchor="end" font-size="13">Vize native loop (1T)</text>
      <rect class="track" x="248" y="85" width="402" height="22" rx="5"/>
      <rect x="248" y="85" width="128.7" height="22" rx="5" fill="#2563eb"/>
      <text class="onbar" x="368.73362445414847" y="96" text-anchor="end" font-size="12" font-weight="600">88.0 ms</text>
  <text class="muted" x="16" y="132" font-size="11">3</text>
      <text class="label" x="236" y="132" text-anchor="end" font-size="13">@vue/compiler-sfc 3.6 (1T)</text>
      <rect class="track" x="248" y="121" width="402" height="22" rx="5"/>
      <rect x="248" y="121" width="400.4" height="22" rx="5" fill="#42b883"/>
      <text class="onbar" x="640.3908296943232" y="132" text-anchor="end" font-size="12" font-weight="600">274 ms</text>
  <text class="muted" x="16" y="168" font-size="11">4</text>
      <text class="label" x="236" y="168" text-anchor="end" font-size="13">@vue/compiler-sfc 3.5 (1T)</text>
      <rect class="track" x="248" y="157" width="402" height="22" rx="5"/>
      <rect x="248" y="157" width="402.0" height="22" rx="5" fill="#42b883"/>
      <text class="onbar" x="642" y="168" text-anchor="end" font-size="12" font-weight="600">275 ms</text>
  <text class="muted" x="16" y="204" font-size="11">5</text>
      <text class="label struck" x="236" y="204" text-anchor="end" font-size="13">Verter compileMany (session cache)</text>
      <rect class="track" x="248" y="193" width="402" height="22" rx="5"/>
      <rect x="248" y="193" width="54.1" height="22" rx="5" fill="url(#hatch-4)"/>
      <text class="label" x="310.12663755458516" y="204" font-size="12" font-weight="600">37.0 ms · unranked</text>
  <text class="muted" x="16" y="240" font-size="11">6</text>
      <text class="label struck" x="236" y="240" text-anchor="end" font-size="13">fervid compileAsync (4-thread libuv…</text>
      <rect class="track" x="248" y="229" width="402" height="22" rx="5"/>
      <rect x="248" y="229" width="124.2" height="22" rx="5" fill="url(#hatch-5)"/>
      <text class="onbar" x="364.1986899563319" y="240" text-anchor="end" font-size="12" font-weight="600">84.9 ms · unranked</text>
  <text class="muted" x="16" y="276" font-size="11">7</text>
      <text class="label struck" x="236" y="276" text-anchor="end" font-size="13">fervid compileSync (1T)</text>
      <rect class="track" x="248" y="265" width="402" height="22" rx="5"/>
      <rect x="248" y="265" width="247.2" height="22" rx="5" fill="url(#hatch-6)"/>
      <text class="onbar" x="487.2270742358079" y="276" text-anchor="end" font-size="12" font-weight="600">169 ms · unranked</text>
  <text class="muted" x="16" y="312" font-size="11">8</text>
      <text class="label struck" x="236" y="312" text-anchor="end" font-size="13">Verter compileMany (stateless)</text>
      <rect class="track" x="248" y="301" width="402" height="22" rx="5"/>
      <rect x="248" y="301" width="332.5" height="22" rx="5" fill="url(#hatch-7)"/>
      <text class="onbar" x="572.5131004366813" y="312" text-anchor="end" font-size="12" font-weight="600">227 ms · unranked</text>
</svg>
